<mxfile host="app.diagrams.net" modified="2021-05-23T21:05:23.788Z" agent="5.0 (Windows NT 10.0; Win64; x64) AppleWebKit/537.36 (KHTML, like Gecko) Chrome/90.0.4430.212 Safari/537.36" etag="sZhyGYRTgY9mxE5Lxz7m" version="14.7.0" type="github">
  <diagram name="Page-1" id="c7488fd3-1785-93aa-aadb-54a6760d102a">
    <mxGraphModel dx="1283" dy="614" grid="1" gridSize="10" guides="1" tooltips="1" connect="1" arrows="1" fold="1" page="1" pageScale="1" pageWidth="1100" pageHeight="850" background="none" math="0" shadow="0">
      <root>
        <mxCell id="0" />
        <mxCell id="1" parent="0" />
        <mxCell id="FaZM63DV4VwQE1YqeUd1-1" value="&lt;font style=&quot;font-size: 14px&quot;&gt;База данных&lt;/font&gt;" style="rounded=0;whiteSpace=wrap;html=1;" vertex="1" parent="1">
          <mxGeometry x="610" y="210" width="150" height="70" as="geometry" />
        </mxCell>
        <mxCell id="FaZM63DV4VwQE1YqeUd1-2" value="&lt;font style=&quot;font-size: 14px&quot;&gt;id&lt;/font&gt;" style="ellipse;whiteSpace=wrap;html=1;" vertex="1" parent="1">
          <mxGeometry x="450" y="110" width="120" height="60" as="geometry" />
        </mxCell>
        <mxCell id="FaZM63DV4VwQE1YqeUd1-3" value="программный код" style="ellipse;whiteSpace=wrap;html=1;" vertex="1" parent="1">
          <mxGeometry x="710" y="100" width="130" height="65" as="geometry" />
        </mxCell>
        <mxCell id="FaZM63DV4VwQE1YqeUd1-4" value="данные об оборудовании" style="ellipse;whiteSpace=wrap;html=1;" vertex="1" parent="1">
          <mxGeometry x="830" y="270" width="130" height="70" as="geometry" />
        </mxCell>
        <mxCell id="FaZM63DV4VwQE1YqeUd1-5" value="данные об уязвимостях" style="ellipse;whiteSpace=wrap;html=1;" vertex="1" parent="1">
          <mxGeometry x="830" y="190" width="120" height="65" as="geometry" />
        </mxCell>
        <mxCell id="FaZM63DV4VwQE1YqeUd1-6" value="техническая документация" style="ellipse;whiteSpace=wrap;html=1;" vertex="1" parent="1">
          <mxGeometry x="580" y="80" width="120" height="60" as="geometry" />
        </mxCell>
        <mxCell id="FaZM63DV4VwQE1YqeUd1-7" value="" style="endArrow=none;html=1;entryX=0.676;entryY=0.974;entryDx=0;entryDy=0;entryPerimeter=0;exitX=0;exitY=0.25;exitDx=0;exitDy=0;" edge="1" parent="1" source="FaZM63DV4VwQE1YqeUd1-1" target="FaZM63DV4VwQE1YqeUd1-2">
          <mxGeometry width="50" height="50" relative="1" as="geometry">
            <mxPoint x="540" y="250" as="sourcePoint" />
            <mxPoint x="590" y="200" as="targetPoint" />
          </mxGeometry>
        </mxCell>
        <mxCell id="FaZM63DV4VwQE1YqeUd1-8" value="" style="endArrow=none;html=1;entryX=0.5;entryY=1;entryDx=0;entryDy=0;exitX=0.25;exitY=0;exitDx=0;exitDy=0;" edge="1" parent="1" source="FaZM63DV4VwQE1YqeUd1-1" target="FaZM63DV4VwQE1YqeUd1-6">
          <mxGeometry width="50" height="50" relative="1" as="geometry">
            <mxPoint x="440" y="300" as="sourcePoint" />
            <mxPoint x="490" y="250" as="targetPoint" />
          </mxGeometry>
        </mxCell>
        <mxCell id="FaZM63DV4VwQE1YqeUd1-9" value="" style="endArrow=none;html=1;entryX=0.5;entryY=1;entryDx=0;entryDy=0;exitX=0.5;exitY=0;exitDx=0;exitDy=0;" edge="1" parent="1" source="FaZM63DV4VwQE1YqeUd1-1" target="FaZM63DV4VwQE1YqeUd1-3">
          <mxGeometry width="50" height="50" relative="1" as="geometry">
            <mxPoint x="430" y="310" as="sourcePoint" />
            <mxPoint x="480" y="260" as="targetPoint" />
          </mxGeometry>
        </mxCell>
        <mxCell id="FaZM63DV4VwQE1YqeUd1-10" value="" style="endArrow=none;html=1;entryX=0;entryY=0.5;entryDx=0;entryDy=0;exitX=1;exitY=0.5;exitDx=0;exitDy=0;" edge="1" parent="1" source="FaZM63DV4VwQE1YqeUd1-1" target="FaZM63DV4VwQE1YqeUd1-5">
          <mxGeometry width="50" height="50" relative="1" as="geometry">
            <mxPoint x="480" y="340" as="sourcePoint" />
            <mxPoint x="530" y="290" as="targetPoint" />
          </mxGeometry>
        </mxCell>
        <mxCell id="FaZM63DV4VwQE1YqeUd1-11" value="" style="endArrow=none;html=1;entryX=0;entryY=0.5;entryDx=0;entryDy=0;exitX=1;exitY=0.75;exitDx=0;exitDy=0;" edge="1" parent="1" source="FaZM63DV4VwQE1YqeUd1-1" target="FaZM63DV4VwQE1YqeUd1-4">
          <mxGeometry width="50" height="50" relative="1" as="geometry">
            <mxPoint x="410" y="360" as="sourcePoint" />
            <mxPoint x="460" y="310" as="targetPoint" />
          </mxGeometry>
        </mxCell>
        <mxCell id="FaZM63DV4VwQE1YqeUd1-12" value="сотрудники информационной безопасности" style="rounded=0;whiteSpace=wrap;html=1;" vertex="1" parent="1">
          <mxGeometry x="120" y="245" width="160" height="80" as="geometry" />
        </mxCell>
        <mxCell id="FaZM63DV4VwQE1YqeUd1-13" value="&lt;font style=&quot;font-size: 14px&quot;&gt;разработчики&lt;/font&gt;" style="rounded=0;whiteSpace=wrap;html=1;" vertex="1" parent="1">
          <mxGeometry x="602.5" y="560" width="165" height="70" as="geometry" />
        </mxCell>
        <mxCell id="FaZM63DV4VwQE1YqeUd1-14" value="загружает данные" style="rhombus;whiteSpace=wrap;html=1;" vertex="1" parent="1">
          <mxGeometry x="360" y="240" width="140" height="85" as="geometry" />
        </mxCell>
        <mxCell id="FaZM63DV4VwQE1YqeUd1-15" value="загружает данные" style="rhombus;whiteSpace=wrap;html=1;" vertex="1" parent="1">
          <mxGeometry x="630" y="380" width="90" height="130" as="geometry" />
        </mxCell>
        <mxCell id="FaZM63DV4VwQE1YqeUd1-16" value="" style="endArrow=none;html=1;entryX=0;entryY=0.5;entryDx=0;entryDy=0;exitX=1;exitY=0.5;exitDx=0;exitDy=0;" edge="1" parent="1" source="FaZM63DV4VwQE1YqeUd1-12" target="FaZM63DV4VwQE1YqeUd1-14">
          <mxGeometry width="50" height="50" relative="1" as="geometry">
            <mxPoint x="340" y="490" as="sourcePoint" />
            <mxPoint x="390" y="440" as="targetPoint" />
          </mxGeometry>
        </mxCell>
        <mxCell id="FaZM63DV4VwQE1YqeUd1-17" value="" style="endArrow=none;html=1;entryX=0;entryY=0.5;entryDx=0;entryDy=0;exitX=1;exitY=0.5;exitDx=0;exitDy=0;" edge="1" parent="1" source="FaZM63DV4VwQE1YqeUd1-14" target="FaZM63DV4VwQE1YqeUd1-1">
          <mxGeometry width="50" height="50" relative="1" as="geometry">
            <mxPoint x="270" y="490" as="sourcePoint" />
            <mxPoint x="320" y="440" as="targetPoint" />
          </mxGeometry>
        </mxCell>
        <mxCell id="FaZM63DV4VwQE1YqeUd1-18" value="" style="endArrow=none;html=1;entryX=0.5;entryY=1;entryDx=0;entryDy=0;exitX=0.5;exitY=0;exitDx=0;exitDy=0;" edge="1" parent="1" source="FaZM63DV4VwQE1YqeUd1-15" target="FaZM63DV4VwQE1YqeUd1-1">
          <mxGeometry width="50" height="50" relative="1" as="geometry">
            <mxPoint x="380" y="510" as="sourcePoint" />
            <mxPoint x="430" y="460" as="targetPoint" />
          </mxGeometry>
        </mxCell>
        <mxCell id="FaZM63DV4VwQE1YqeUd1-19" value="" style="endArrow=none;html=1;entryX=0.5;entryY=1;entryDx=0;entryDy=0;exitX=0.442;exitY=-0.053;exitDx=0;exitDy=0;exitPerimeter=0;" edge="1" parent="1" source="FaZM63DV4VwQE1YqeUd1-13" target="FaZM63DV4VwQE1YqeUd1-15">
          <mxGeometry width="50" height="50" relative="1" as="geometry">
            <mxPoint x="260" y="510" as="sourcePoint" />
            <mxPoint x="310" y="460" as="targetPoint" />
          </mxGeometry>
        </mxCell>
        <mxCell id="FaZM63DV4VwQE1YqeUd1-20" value="&lt;font style=&quot;font-size: 14px&quot;&gt;оборудование&lt;/font&gt;" style="ellipse;whiteSpace=wrap;html=1;" vertex="1" parent="1">
          <mxGeometry x="170" y="120" width="120" height="60" as="geometry" />
        </mxCell>
        <mxCell id="FaZM63DV4VwQE1YqeUd1-21" value="&lt;font style=&quot;font-size: 14px&quot;&gt;утечки&lt;/font&gt;" style="ellipse;whiteSpace=wrap;html=1;" vertex="1" parent="1">
          <mxGeometry x="10" y="160" width="130" height="70" as="geometry" />
        </mxCell>
        <mxCell id="FaZM63DV4VwQE1YqeUd1-22" value="&lt;font style=&quot;font-size: 14px&quot;&gt;внешние атаки&lt;/font&gt;" style="ellipse;whiteSpace=wrap;html=1;" vertex="1" parent="1">
          <mxGeometry x="30" y="370" width="120" height="80" as="geometry" />
        </mxCell>
        <mxCell id="FaZM63DV4VwQE1YqeUd1-23" value="" style="endArrow=none;html=1;entryX=0.5;entryY=1;entryDx=0;entryDy=0;exitX=0.601;exitY=-0.025;exitDx=0;exitDy=0;exitPerimeter=0;" edge="1" parent="1" source="FaZM63DV4VwQE1YqeUd1-12" target="FaZM63DV4VwQE1YqeUd1-20">
          <mxGeometry width="50" height="50" relative="1" as="geometry">
            <mxPoint x="270" y="470" as="sourcePoint" />
            <mxPoint x="320" y="420" as="targetPoint" />
          </mxGeometry>
        </mxCell>
        <mxCell id="FaZM63DV4VwQE1YqeUd1-24" value="" style="endArrow=none;html=1;entryX=0.979;entryY=0.726;entryDx=0;entryDy=0;entryPerimeter=0;" edge="1" parent="1" source="FaZM63DV4VwQE1YqeUd1-12" target="FaZM63DV4VwQE1YqeUd1-21">
          <mxGeometry width="50" height="50" relative="1" as="geometry">
            <mxPoint x="200" y="450" as="sourcePoint" />
            <mxPoint x="250" y="400" as="targetPoint" />
          </mxGeometry>
        </mxCell>
        <mxCell id="FaZM63DV4VwQE1YqeUd1-25" value="" style="endArrow=none;html=1;exitX=1;exitY=0.5;exitDx=0;exitDy=0;" edge="1" parent="1" source="FaZM63DV4VwQE1YqeUd1-22" target="FaZM63DV4VwQE1YqeUd1-12">
          <mxGeometry width="50" height="50" relative="1" as="geometry">
            <mxPoint x="240" y="470" as="sourcePoint" />
            <mxPoint x="290" y="420" as="targetPoint" />
          </mxGeometry>
        </mxCell>
        <mxCell id="FaZM63DV4VwQE1YqeUd1-26" value="&lt;font style=&quot;font-size: 14px&quot;&gt;программный код&lt;/font&gt;" style="ellipse;whiteSpace=wrap;html=1;" vertex="1" parent="1">
          <mxGeometry x="420" y="550" width="120" height="80" as="geometry" />
        </mxCell>
        <mxCell id="FaZM63DV4VwQE1YqeUd1-27" value="&lt;font style=&quot;font-size: 14px&quot;&gt;техническая документация&lt;/font&gt;" style="ellipse;whiteSpace=wrap;html=1;" vertex="1" parent="1">
          <mxGeometry x="630" y="710" width="120" height="80" as="geometry" />
        </mxCell>
        <mxCell id="FaZM63DV4VwQE1YqeUd1-28" value="&lt;font style=&quot;font-size: 14px&quot;&gt;временные файлы&lt;/font&gt;" style="ellipse;whiteSpace=wrap;html=1;" vertex="1" parent="1">
          <mxGeometry x="880" y="630" width="120" height="80" as="geometry" />
        </mxCell>
        <mxCell id="FaZM63DV4VwQE1YqeUd1-29" value="" style="endArrow=none;html=1;entryX=1;entryY=0.5;entryDx=0;entryDy=0;exitX=0;exitY=0.5;exitDx=0;exitDy=0;" edge="1" parent="1" source="FaZM63DV4VwQE1YqeUd1-13" target="FaZM63DV4VwQE1YqeUd1-26">
          <mxGeometry width="50" height="50" relative="1" as="geometry">
            <mxPoint x="350" y="730" as="sourcePoint" />
            <mxPoint x="400" y="680" as="targetPoint" />
          </mxGeometry>
        </mxCell>
        <mxCell id="FaZM63DV4VwQE1YqeUd1-30" value="" style="endArrow=none;html=1;entryX=0.5;entryY=1;entryDx=0;entryDy=0;exitX=0.5;exitY=0;exitDx=0;exitDy=0;" edge="1" parent="1" source="FaZM63DV4VwQE1YqeUd1-27" target="FaZM63DV4VwQE1YqeUd1-13">
          <mxGeometry width="50" height="50" relative="1" as="geometry">
            <mxPoint x="490" y="760" as="sourcePoint" />
            <mxPoint x="540" y="710" as="targetPoint" />
          </mxGeometry>
        </mxCell>
        <mxCell id="FaZM63DV4VwQE1YqeUd1-31" value="" style="endArrow=none;html=1;entryX=1;entryY=0.5;entryDx=0;entryDy=0;exitX=0;exitY=0.5;exitDx=0;exitDy=0;" edge="1" parent="1" source="FaZM63DV4VwQE1YqeUd1-28" target="FaZM63DV4VwQE1YqeUd1-13">
          <mxGeometry width="50" height="50" relative="1" as="geometry">
            <mxPoint x="460" y="780" as="sourcePoint" />
            <mxPoint x="510" y="730" as="targetPoint" />
          </mxGeometry>
        </mxCell>
        <mxCell id="FaZM63DV4VwQE1YqeUd1-32" value="файлы" style="ellipse;whiteSpace=wrap;html=1;" vertex="1" parent="1">
          <mxGeometry x="820" y="355" width="120" height="70" as="geometry" />
        </mxCell>
        <mxCell id="FaZM63DV4VwQE1YqeUd1-33" value="" style="endArrow=none;html=1;entryX=0;entryY=0.5;entryDx=0;entryDy=0;exitX=0.75;exitY=1;exitDx=0;exitDy=0;" edge="1" parent="1" source="FaZM63DV4VwQE1YqeUd1-1" target="FaZM63DV4VwQE1YqeUd1-32">
          <mxGeometry width="50" height="50" relative="1" as="geometry">
            <mxPoint x="450" y="460" as="sourcePoint" />
            <mxPoint x="500" y="410" as="targetPoint" />
          </mxGeometry>
        </mxCell>
      </root>
    </mxGraphModel>
  </diagram>
</mxfile>
